<svg xmlns="http://www.w3.org/2000/svg" version="1.1" xmlns:xlink="http://www.w3.org/1999/xlink" width="512" height="512" x="0" y="0" viewBox="0 0 512 512" style="enable-background:new 0 0 512 512" xml:space="preserve" class=""><g><linearGradient id="a" x1="74.98" x2="437.02" y1="74.98" y2="437.02" gradientUnits="userSpaceOnUse"><stop offset="0" stop-color="#0fc8ff"></stop><stop offset="1" stop-color="#4760ff"></stop></linearGradient><g data-name="Layer 2"><g data-name="question mark"><circle cx="256" cy="256" r="256" fill="url(#a)" opacity="1" data-original="url(#a)" class=""></circle><path fill="#ffffff" d="M277.27 341.42a29.76 29.76 0 0 0-21.27-9h-.52a30.81 30.81 0 1 0 0 61.61h.52a30.8 30.8 0 0 0 21.27-52.57zm36.19-202.23c-13.58-14-32.91-21.09-57.46-21.18h-.52c-19.41 0-36 5.3-49.22 15.77a90.79 90.79 0 0 0-16.75 17.16 83.16 83.16 0 0 0-11.1 20.47 6.6 6.6 0 0 0 3.52 8.34l29 12.79a6.57 6.57 0 0 0 8.77-3.55 62.28 62.28 0 0 1 12.86-19.21c5.19-5.48 12.68-8.15 22.87-8.15h.57c10.46.08 18.28 2.85 23.86 8.44s8.44 12.63 8.44 21.27a34.7 34.7 0 0 1-6.6 20.28c-4.88 7-12.05 14.86-21.32 23.24-1.53 1.39-3 2.77-4.38 4.12-8.26 8.09-14 15.6-17.38 22.86a61 61 0 0 0-4.62 16.07 160 160 0 0 0-1.76 22.95 6.6 6.6 0 0 0 6.6 6.69h34.58a6.59 6.59 0 0 0 6.6-6.48c.27-14.72 2-21.9 3.34-25.33s5.69-10 18.83-22.58c10.84-10.36 18.9-20.47 23.93-30.06A70.38 70.38 0 0 0 334 190c0-19.73-6.91-36.8-20.54-50.81z" opacity="1" data-original="#ffffff" class=""></path></g></g></g></svg>