<svg xmlns="http://www.w3.org/2000/svg" version="1.1" xmlns:xlink="http://www.w3.org/1999/xlink" width="512" height="512" x="0" y="0" viewBox="0 0 512 512" style="enable-background:new 0 0 512 512" xml:space="preserve" class=""><g><path fill="#39326c" d="M391 81h30V15c0-8.284-6.716-15-15-15-8.284 0-15 6.716-15 15zM331 81h30V15c0-8.284-6.716-15-15-15-8.284 0-15 6.716-15 15zM271 81h30V15c0-8.284-6.716-15-15-15-8.284 0-15 6.716-15 15z" opacity="1" data-original="#39326c"></path><path fill="#5f55af" d="M211 81h30V15c0-8.284-6.716-15-15-15-8.284 0-15 6.716-15 15zM151 81h30V15c0-8.284-6.716-15-15-15-8.284 0-15 6.716-15 15zM91 81h30V15c0-8.284-6.716-15-15-15-8.284 0-15 6.716-15 15z" opacity="1" data-original="#5f55af"></path><path fill="#39326c" d="M406 512c8.284 0 15-6.716 15-15v-66h-30v66c0 8.284 6.716 15 15 15zM346 512c8.284 0 15-6.716 15-15v-66h-30v66c0 8.284 6.716 15 15 15zM286 512c8.284 0 15-6.716 15-15v-66h-30v66c0 8.284 6.716 15 15 15z" opacity="1" data-original="#39326c"></path><g fill="#5f55af"><path d="M226 512c8.284 0 15-6.716 15-15v-66h-30v66c0 8.284 6.716 15 15 15zM166 512c8.284 0 15-6.716 15-15v-66h-30v66c0 8.284 6.716 15 15 15zM106 512c8.284 0 15-6.716 15-15v-66H91v66c0 8.284 6.716 15 15 15zM15 121h66V91H15c-8.284 0-15 6.716-15 15 0 8.284 6.716 15 15 15zM15 181h66v-30H15c-8.284 0-15 6.716-15 15 0 8.284 6.716 15 15 15zM15 241h66v-30H15c-8.284 0-15 6.716-15 15 0 8.284 6.716 15 15 15zM15 301h66v-30H15c-8.284 0-15 6.716-15 15 0 8.284 6.716 15 15 15zM15 361h66v-30H15c-8.284 0-15 6.716-15 15 0 8.284 6.716 15 15 15zM15 421h66v-30H15c-8.284 0-15 6.716-15 15 0 8.284 6.716 15 15 15z" fill="#5f55af" opacity="1" data-original="#5f55af"></path></g><path fill="#39326c" d="M431 91v30h66c8.284 0 15-6.716 15-15 0-8.284-6.716-15-15-15zM431 181h66c8.284 0 15-6.716 15-15 0-8.284-6.716-15-15-15h-66zM431 241h66c8.284 0 15-6.716 15-15 0-8.284-6.716-15-15-15h-66zM431 301h66c8.284 0 15-6.716 15-15 0-8.284-6.716-15-15-15h-66zM431 361h66c8.284 0 15-6.716 15-15 0-8.284-6.716-15-15-15h-66zM431 421h66c8.284 0 15-6.716 15-15 0-8.284-6.716-15-15-15h-66z" opacity="1" data-original="#39326c"></path><path fill="#aed0ff" d="M446 51H66c-8.284 0-15 6.716-15 15v380c0 8.284 6.716 15 15 15h380c8.284 0 15-6.716 15-15V66c0-8.284-6.716-15-15-15z" opacity="1" data-original="#aed0ff"></path><path fill="#7c84e8" d="M461 446V66c0-8.284-6.716-15-15-15H256v410h190c8.284 0 15-6.716 15-15z" opacity="1" data-original="#7c84e8"></path><path fill="#5f55af" d="M386 111H126c-8.284 0-15 6.716-15 15v260c0 8.284 6.716 15 15 15h260c8.284 0 15-6.716 15-15V126c0-8.284-6.716-15-15-15z" opacity="1" data-original="#5f55af"></path><path fill="#39326c" d="M401 386V126c0-8.284-6.716-15-15-15H256v290h130c8.284 0 15-6.716 15-15z" opacity="1" data-original="#39326c"></path><path fill="#f9f9f9" d="M247.626 192.389A17.657 17.657 0 0 0 231.077 181h-.018a17.658 17.658 0 0 0-16.517 11.351l-45.06 118.31c-2.949 7.742.937 16.408 8.679 19.356 7.742 2.95 16.408-.937 19.356-8.679l7.543-19.804h51.691l7.458 19.762c2.267 6.007 7.974 9.708 14.036 9.708 1.76 0 3.55-.312 5.294-.97 7.75-2.925 11.663-11.579 8.737-19.33zm-31.14 79.146 14.538-38.171 14.406 38.171z" opacity="1" data-original="#f9f9f9"></path><g fill="#e2dff4"><path d="M264.209 321.296c2.267 6.007 7.974 9.708 14.036 9.708 1.76 0 3.55-.312 5.294-.97 7.75-2.925 11.663-11.579 8.737-19.33L256 214.578v86.956h.751zM328.5 181c-8.284 0-15 6.716-15 15v120c0 8.284 6.716 15 15 15s15-6.716 15-15V196c0-8.284-6.716-15-15-15z" fill="#e2dff4" opacity="1" data-original="#e2dff4"></path></g></g></svg>