<svg xmlns="http://www.w3.org/2000/svg" version="1.1" xmlns:xlink="http://www.w3.org/1999/xlink" width="512" height="512" x="0" y="0" viewBox="0 0 512 512" style="enable-background:new 0 0 512 512" xml:space="preserve" class=""><g><linearGradient id="a" x1="299.286" x2="299.286" y1="367.004" y2="0" gradientUnits="userSpaceOnUse"><stop offset="0" stop-color="#addcff"></stop><stop offset=".503" stop-color="#eaf6ff"></stop><stop offset="1" stop-color="#eaf6ff"></stop></linearGradient><linearGradient id="b" x1="218.857" x2="218.857" y1="512" y2="75" gradientUnits="userSpaceOnUse"><stop offset="0" stop-color="#5558ff"></stop><stop offset="1" stop-color="#00c0ff"></stop></linearGradient><path fill="url(#a)" d="M367.729 310H237c-8.284 0-15-6.716-15-15V15c0-8.284 6.716-15 15-15h260c8.284 0 15 6.716 15 15v280c0 8.284-6.716 15-15 15h-50.729m-243.829 36.661L161.137 238.21l-.134-.338a17.432 17.432 0 0 0-16.177-10.873h-.016a17.433 17.433 0 0 0-16.179 10.843L87.543 346.704c-2.925 7.75.986 16.405 8.737 19.33 7.75 2.925 16.405-.987 19.33-8.737l6.531-17.306h45.658l6.608 17.349c2.948 7.742 11.615 11.627 19.356 8.679h.001c7.741-2.95 11.626-11.616 8.678-19.358zm-68.979-36.671 11.403-30.214 11.508 30.214z" opacity="1" data-original="url(#a)" class=""></path><path fill="url(#b)" d="m144.865 279.776 11.508 30.214h-22.91zM290 310v127c0 8.284-6.716 15-15 15H144.271l-25.854 51.708c-5.528 11.056-21.305 11.056-26.833 0L65.729 452H15c-8.284 0-15-6.716-15-15V157c0-8.284 6.716-15 15-15h207v153c0 8.284 6.716 15 15 15zm-87.558 36.661L161.137 238.21l-.134-.338a17.432 17.432 0 0 0-16.177-10.873h-.016a17.433 17.433 0 0 0-16.179 10.843L87.543 346.704c-2.925 7.75.986 16.405 8.737 19.33 7.75 2.925 16.405-.987 19.33-8.737l6.531-17.306h45.658l6.608 17.349c2.948 7.742 11.615 11.627 19.356 8.679h.001c7.741-2.95 11.626-11.616 8.678-19.358zM437.714 220c0 8.284-6.716 15-15 15-20.373 0-39.443-5.68-55.714-15.536C350.729 229.32 331.659 235 311.286 235c-8.284 0-15-6.716-15-15s6.716-15 15-15a77.405 77.405 0 0 0 30.76-6.347c-13.766-15.512-23.135-35.004-26.141-56.51h-4.619c-8.284 0-15-6.716-15-15s6.716-15 15-15H352V90c0-8.284 6.716-15 15-15s15 6.716 15 15v22.143h40.714c8.284 0 15 6.716 15 15s-6.716 15-15 15h-4.619c-3.006 21.506-12.375 40.999-26.141 56.51a77.405 77.405 0 0 0 30.76 6.347c8.284 0 15 6.716 15 15zm-91.392-77.857c2.964 15.122 10.319 28.682 20.678 39.308 10.36-10.626 17.714-24.186 20.678-39.308z" opacity="1" data-original="url(#b)" class=""></path></g></svg>