<svg xmlns="http://www.w3.org/2000/svg" version="1.1" xmlns:xlink="http://www.w3.org/1999/xlink" xmlns:svgjs="http://svgjs.com/svgjs" width="512" height="512" x="0" y="0" viewBox="0 0 512 512" style="enable-background:new 0 0 512 512" xml:space="preserve" class=""><g><path fill="gray" d="M256.002.021v.012c-77.249 0-149.727 31.696-191.911 81.523C20.469 130.672.005 193.811.005 256.002c0 62.229 20.488 125.401 64.165 174.53.028.047.05.061.077.093 53.417 58.503 125.404 81.354 191.756 81.354h.012c81.157-.07 151.076-35.053 191.832-81.444l.026-.045c43.656-49.124 64.136-112.28 64.136-174.496 0-62.231-20.486-125.408-64.163-174.537-.052-.06-.107-.116-.162-.176C392.341 22.265 322.533.025 256.007.025zm0 125.234c49.036 0 77.275 15.819 98.249 39.411 20.698 23.282 32.529 56.952 32.529 91.334s-11.832 68.05-32.529 91.331c-20.974 23.591-49.213 39.421-98.249 39.421s-77.27-15.829-98.244-39.421c-20.697-23.28-32.529-56.949-32.529-91.331s11.832-68.052 32.529-91.334c20.974-23.592 49.208-39.411 98.244-39.411z" data-original="gray" class="" opacity="1"></path><path fill="gray" d="M458.076 338.8a17.888 17.888 0 0 0-16.198 9.937c-23.744 47.828-57.885 78.729-107.817 97.006-9.278 3.396-14.046 13.671-10.649 22.948s13.67 14.046 22.948 10.65c57.557-21.069 100.315-59.809 127.565-114.7 4.392-8.847.782-19.581-8.064-23.975a17.892 17.892 0 0 0-7.785-1.866z" data-original="gray" class="" opacity="1"></path><path fill="gray" d="M171.005 32.554C114.981 51.876 73.693 87.891 46.326 140.511a8.944 8.944 0 0 0 15.869 8.253c25.548-49.123 62.459-81.301 114.644-99.298a8.943 8.943 0 0 0 5.534-11.369c-1.874-5.251-6.75-6.772-11.368-5.543z" data-original="gray" class=""></path></g></svg>