<svg xmlns="http://www.w3.org/2000/svg" version="1.1" xmlns:xlink="http://www.w3.org/1999/xlink" xmlns:svgjs="http://svgjs.com/svgjs" width="512" height="512" x="0" y="0" viewBox="0 0 360 360" style="enable-background:new 0 0 512 512" xml:space="preserve" class=""><g><linearGradient id="a" x1="52.721" x2="307.279" y1="307.279" y2="52.721" gradientUnits="userSpaceOnUse"><stop offset="0" stop-color="#5558ff"></stop><stop offset="1" stop-color="#00c0ff"></stop></linearGradient><linearGradient id="b" x1="160.36" x2="222.328" y1="106.192" y2="44.224" gradientUnits="userSpaceOnUse"><stop offset="0" stop-color="#addcff"></stop><stop offset="1" stop-color="#eaf6ff"></stop></linearGradient><circle cx="180" cy="180" r="180" fill="url(#a)" data-original="url(#a)" class=""></circle><path fill="url(#b)" d="m167.109 107.904.356-66.009c.05-9.221 10.063-14.929 18.023-10.275l56.978 33.313c7.959 4.653 7.897 16.178-.112 20.745l-57.334 32.696c-8.01 4.568-17.961-1.249-17.911-10.47z" data-original="url(#b)"></path><path fill="#ffffff" d="M180 300c-31.865 0-61.948-12.534-84.707-35.293S60 211.865 60 180s12.534-61.948 35.293-84.707S148.135 60 180 60h17c8.284 0 15 6.716 15 15s-6.716 15-15 15h-17c-49.626 0-90 40.374-90 90s40.374 90 90 90 90-40.374 90-90c0-8.284 6.716-15 15-15s15 6.716 15 15c0 31.865-12.534 61.948-35.293 84.707S211.865 300 180 300z" data-original="#ffffff"></path></g></svg>