<svg xmlns="http://www.w3.org/2000/svg" version="1.1" xmlns:xlink="http://www.w3.org/1999/xlink" xmlns:svgjs="http://svgjs.com/svgjs" width="512" height="512" x="0" y="0" viewBox="0 0 480 480" style="enable-background:new 0 0 512 512" xml:space="preserve" class=""><g><linearGradient id="a" x1="240" x2="240" y2="480" gradientUnits="userSpaceOnUse"><stop offset="0" stop-color="#09c4f9"></stop><stop offset="1" stop-color="#0163ec"></stop></linearGradient><g data-name="Layer 2"><circle cx="240" cy="240" r="240" fill="url(#a)" data-original="url(#a)"></circle><g fill="#fff"><path d="M348.84 197.59c-11.89 10.46-29 11.53-41.75 2.18-3.07-2.25-5.24-2.38-8.44-.65-7.64 4.14-15.42 8-23.27 11.78-2.94 1.41-4 3.16-4.11 6.47-.81 18.34-14.94 32.14-32.89 32.49s-32.61-13.13-34-31.4c-.31-4.13 1.14-8.37 1.44-12.58.11-1.62-.16-4-1.22-4.83-9-6.86-18.26-13.43-27.51-20.14-8.56 6.34-17.66 9.39-28.15 7.53a33.55 33.55 0 0 1-27-39.93c3.6-18.25 22.55-30.16 40.84-25.66s29.67 23.58 24.18 41.56c-1.3 4.26-.42 6.23 3.05 8.56 7.51 5 14.62 10.66 22.09 15.77 1.35.92 4.11 1.34 5.4.59 19.06-11.13 34.46-8.42 48.7 8.83a7.86 7.86 0 0 0 1.33.89c4.31-2.16 8.88-4.42 13.43-6.73s9.13-4.66 13.71-7c-.58-3.94-1.43-7.57-1.61-11.23a33.1 33.1 0 0 1 23.95-33.74 33.55 33.55 0 0 1 31.75 57.25z" fill="#ffffff" data-original="#ffffff"></path><path d="M182.53 285v51.63c0 13.14-8 21.2-21.19 21.38-6.74.09-13.48.07-20.22 0-12.93-.15-21-8.35-21.07-21.58-.08-26.26 0-52.52 0-78.78 0-8.16-.06-16.32 0-24.48.13-13.41 8.23-21.56 21.54-21.7 6.57-.07 13.13-.11 19.7 0 13.14.21 21.2 8.31 21.24 21.39.05 17.39.01 34.78 0 52.14zM268.79 313.06v23.92c-.1 12.31-8.36 20.62-20.72 20.81-7.08.1-14.18.11-21.26 0-11.71-.18-20.3-8.3-20.49-20-.28-16.65-.25-33.32 0-50 .17-11.94 8.79-20.18 20.76-20.35 7.08-.11 14.17-.14 21.26 0 11.92.23 20.3 8.68 20.44 20.61.1 8.33 0 16.66 0 25zM355 297.13c0 12.95.06 25.9 0 38.85-.07 13.3-8.32 21.51-21.64 21.62-6.74 0-13.49.11-20.22 0-12-.23-20.56-8.52-20.63-20.49q-.24-40.18 0-80.37c.08-11.69 8.62-20 20.3-20.23 7.27-.15 14.55-.12 21.82 0 11.61.19 20.18 8.62 20.32 20.21.21 13.44.05 26.92.05 40.41z" fill="#ffffff" data-original="#ffffff"></path></g></g></g></svg>