<svg xmlns="http://www.w3.org/2000/svg" version="1.1" xmlns:xlink="http://www.w3.org/1999/xlink" width="512" height="512" x="0" y="0" viewBox="0 0 510 510" style="enable-background:new 0 0 512 512" xml:space="preserve" class=""><g><linearGradient id="c" x1="154.667" x2="400.018" y1="410" y2="410" gradientUnits="userSpaceOnUse"><stop offset="0" stop-color="#537983"></stop><stop offset="1" stop-color="#3e5959"></stop></linearGradient><linearGradient id="d" x1="51.333" x2="370.084" y1="410" y2="410" gradientUnits="userSpaceOnUse"><stop offset="0" stop-color="#537983"></stop><stop offset="1" stop-color="#384949"></stop></linearGradient><linearGradient id="a"><stop offset="0" stop-color="#ffe177"></stop><stop offset=".573" stop-color="#feb137"></stop><stop offset="1" stop-color="#fe646f"></stop></linearGradient><linearGradient xlink:href="#a" id="e" x1="47.048" x2="449.041" y1="216.581" y2="216.581" gradientUnits="userSpaceOnUse"></linearGradient><linearGradient xlink:href="#a" id="f" x1="-174.362" x2="441.339" y1="216.579" y2="216.579" gradientUnits="userSpaceOnUse"></linearGradient><linearGradient id="b"><stop offset="0" stop-color="#fe646f"></stop><stop offset=".573" stop-color="#fb2b3a"></stop><stop offset="1" stop-color="#c41926"></stop></linearGradient><linearGradient xlink:href="#b" id="g" x1="-6" x2="112.121" y1="90.386" y2="90.386" gradientUnits="userSpaceOnUse"></linearGradient><linearGradient xlink:href="#b" id="h" x1="-6" x2="112.121" y1="75.293" y2="75.293" gradientUnits="userSpaceOnUse"></linearGradient><linearGradient xlink:href="#b" id="i" x1="367.333" x2="499.333" y1="90.386" y2="90.386" gradientUnits="userSpaceOnUse"></linearGradient><linearGradient xlink:href="#b" id="j" x1="367.333" x2="499.333" y1="75.293" y2="75.293" gradientUnits="userSpaceOnUse"></linearGradient><circle cx="255" cy="410" r="100" fill="url(#c)" opacity="1" data-original="url(#c)"></circle><path fill="url(#d)" d="M346.117 451.259c5.852-12.903 9.045-27.27 8.876-42.4-.612-54.9-46.062-99.376-100.963-98.854-54.781.52-99.03 45.09-99.03 99.995 0 14.711 3.178 28.68 8.883 41.259 28.411 4.629 59.995 6.93 91.563 6.906 20.688-.016 28.224 27.382 10.426 37.928a99.313 99.313 0 0 1-30.884 11.902A100.407 100.407 0 0 0 255 510c40.517 0 75.406-24.096 91.118-58.74z" opacity="1" data-original="url(#d)"></path><path fill="url(#e)" d="M420.133 189.028a168.072 168.072 0 0 0 1.493-22.401C421.626 74.372 347.547.159 255.293 0 163.133-.158 88.374 74.503 88.374 166.626c0 7.571.505 15.024 1.483 22.327 5.042 37.645-.466 76.091-17.661 109.957-10.172 20.034-15.802 42.082-15.802 65.233 0 92.025 397.211 92.025 397.211 0 0-23.152-5.63-45.2-15.802-65.234-17.183-33.842-22.726-72.265-17.67-109.881z" opacity="1" data-original="url(#e)" class=""></path><path fill="url(#f)" d="M437.803 298.909c-17.184-33.843-22.726-72.265-17.67-109.881a168.072 168.072 0 0 0 1.493-22.401C421.626 74.372 347.547.159 255.293 0c-6.859-.012-13.618.4-20.26 1.194 82.846 9.836 146.573 79.869 146.573 165.432 0 7.597-.508 15.074-1.493 22.401-5.056 37.617.487 76.039 17.67 109.881 10.173 20.034 15.802 42.082 15.802 65.234 0 42.917-86.392 65.816-178.596 68.703 105.504 3.304 218.616-19.595 218.616-68.703.001-23.151-5.629-45.199-15.802-65.233z" opacity="1" data-original="url(#f)" class=""></path><path fill="url(#g)" d="m104.112 37.615-.245-.245c-5.41-5.41-14.351-4.599-18.787 1.635-19.415 27.283-32.547 59.34-37.293 94.064C46.779 140.442 52.556 147 59.998 147h.361c6.116 0 11.358-4.483 12.183-10.543 4.084-30.007 15.305-58.311 32.825-82.899 3.514-4.933 3.027-11.661-1.255-15.943z" opacity="1" data-original="url(#g)"></path><path fill="url(#h)" d="m68.683 7.25-.002-.002c-5.359-5.359-14.229-4.759-18.799 1.287C23.1 43.969 5.354 86.617.082 133.054-.761 140.481 5.022 147 12.497 147c6.387 0 11.7-4.823 12.42-11.17a227.867 227.867 0 0 1 16.577-63.19c7.411-17.514 16.868-33.896 28.264-48.952 3.783-4.999 3.359-12.005-1.075-16.438z" opacity="1" data-original="url(#h)"></path><path fill="url(#i)" d="M424.92 39.004c-4.436-6.233-13.377-7.044-18.787-1.635l-.245.245c-4.282 4.282-4.769 11.01-1.254 15.942 17.519 24.589 28.741 52.892 32.825 82.899.825 6.061 6.067 10.543 12.183 10.543h.361c7.442 0 13.219-6.558 12.211-13.931-4.747-34.723-17.879-66.779-37.294-94.063z" opacity="1" data-original="url(#i)"></path><path fill="url(#j)" d="M509.918 133.054c-5.272-46.437-23.018-89.085-49.8-124.519-4.57-6.046-13.44-6.646-18.799-1.287l-.002.002c-4.433 4.434-4.858 11.439-1.074 16.438 11.396 15.056 20.853 31.438 28.264 48.952a227.867 227.867 0 0 1 16.577 63.19c.72 6.347 6.032 11.17 12.42 11.17 7.474 0 13.257-6.519 12.414-13.946z" opacity="1" data-original="url(#j)"></path></g></svg>