<svg xmlns="http://www.w3.org/2000/svg" version="1.1" xmlns:xlink="http://www.w3.org/1999/xlink" xmlns:svgjs="http://svgjs.com/svgjs" width="512" height="512" x="0" y="0" viewBox="0 0 64 64" style="enable-background:new 0 0 512 512" xml:space="preserve" class=""><g><linearGradient id="a" x1="11" x2="53" y1="30" y2="30" gradientUnits="userSpaceOnUse"><stop offset="0" stop-color="#feec97"></stop><stop offset=".989" stop-color="#ffc002"></stop></linearGradient><linearGradient id="b" x1="26" x2="38" y1="61" y2="61" gradientUnits="userSpaceOnUse"><stop offset="0" stop-color="#a5abee"></stop><stop offset=".989" stop-color="#6c76e7"></stop></linearGradient><linearGradient id="c" x1="22.83" x2="41.17" y1="53" y2="53" gradientUnits="userSpaceOnUse"><stop offset="0" stop-color="#dfd1f8"></stop><stop offset=".989" stop-color="#a7aef2"></stop></linearGradient><linearGradient id="d" x1="20" x2="44" y1="33" y2="33" gradientUnits="userSpaceOnUse"><stop offset="0" stop-color="#ffb850"></stop><stop offset=".989" stop-color="#ff8901"></stop></linearGradient><linearGradient xlink:href="#a" id="e" x1="55" x2="61" y1="21.201" y2="21.201"></linearGradient><linearGradient xlink:href="#a" id="f" x1="3" x2="9" y1="21.201" y2="21.201"></linearGradient><linearGradient xlink:href="#a" id="g" x1="47.971" x2="52.799" y1="39.586" y2="39.586"></linearGradient><linearGradient xlink:href="#a" id="h" x1="11.201" x2="16.029" y1="2.816" y2="2.816"></linearGradient><linearGradient xlink:href="#a" id="i" x1="11.201" x2="16.029" y1="39.586" y2="39.586"></linearGradient><linearGradient xlink:href="#a" id="j" x1="47.971" x2="52.799" y1="2.816" y2="2.816"></linearGradient><linearGradient xlink:href="#a" id="k" x1="52.977" x2="58.641" y1="10.755" y2="10.755"></linearGradient><linearGradient xlink:href="#a" id="l" x1="5.359" x2="11.023" y1="31.648" y2="31.648"></linearGradient><linearGradient xlink:href="#a" id="m" x1="5.359" x2="11.023" y1="10.755" y2="10.755"></linearGradient><linearGradient xlink:href="#a" id="n" x1="52.977" x2="58.641" y1="31.648" y2="31.648"></linearGradient><linearGradient xlink:href="#b" id="o" x1="21" x2="43" y1="47" y2="47"></linearGradient><linearGradient xlink:href="#b" id="p" x1="21" x2="43" y1="53" y2="53"></linearGradient><path fill="url(#a)" d="M46.442 5.756C42.216 1.751 36.679-.283 30.847.031 19.945.614 11.042 9.984 11 20.917c-.02 5.732 2.221 11.088 6.31 15.078a18.973 18.973 0 0 1 5.53 11.147c.108.752.16 1.537.16 2.398V57c0 1.654 1.346 3 3 3h12c1.654 0 3-1.346 3-3v-7.45c0-.856.054-1.667.163-2.428.521-4.234 2.446-8.149 5.422-11.023C50.722 32.105 53 26.743 53 21c0-5.823-2.329-11.237-6.558-15.245z" data-original="url(#a)" class=""></path><path fill="url(#b)" d="M37.788 58.385A.998.998 0 0 0 37 58H27a.998.998 0 0 0-.97 1.243l1 4A1 1 0 0 0 28 64h8a1 1 0 0 0 .97-.757l1-4a1 1 0 0 0-.182-.858z" data-original="url(#b)"></path><path fill="url(#c)" d="M40.925 46.345A1 1 0 0 0 40.17 46H23.83a1 1 0 0 0-.989 1.142c.108.752.16 1.537.16 2.398V57c0 1.654 1.346 3 3 3h12c1.654 0 3-1.346 3-3v-7.45c0-.856.054-1.667.16-2.408a1 1 0 0 0-.234-.797z" data-original="url(#c)"></path><path fill="url(#d)" d="M39.5 18a4.505 4.505 0 0 0-4.5 4.5V25h-6v-2.5c0-2.482-2.019-4.5-4.5-4.5S20 20.018 20 22.5s2.019 4.5 4.5 4.5H27v20a1 1 0 0 0 2 0V27h6v20a1 1 0 0 0 2 0V27h2.5c2.481 0 4.5-2.019 4.5-4.5S41.981 18 39.5 18zM22 22.5c0-1.378 1.122-2.5 2.5-2.5s2.5 1.122 2.5 2.5V25h-2.5a2.503 2.503 0 0 1-2.5-2.5zM39.5 25H37v-2.5c0-1.378 1.122-2.5 2.5-2.5s2.5 1.122 2.5 2.5-1.122 2.5-2.5 2.5z" data-original="url(#d)"></path><path fill="url(#e)" d="M60 22.201h-4a1 1 0 0 1 0-2h4a1 1 0 0 1 0 2z" data-original="url(#e)"></path><path fill="url(#f)" d="M8 22.201H4a1 1 0 0 1 0-2h4a1 1 0 0 1 0 2z" data-original="url(#f)"></path><path fill="url(#g)" d="M51.799 42a.997.997 0 0 1-.707-.293l-2.828-2.829a.999.999 0 1 1 1.414-1.414l2.828 2.829A.999.999 0 0 1 51.799 42z" data-original="url(#g)"></path><path fill="url(#h)" d="M15.029 5.231a.997.997 0 0 1-.707-.293l-2.828-2.829A.999.999 0 1 1 12.908.695l2.828 2.829a.999.999 0 0 1-.707 1.707z" data-original="url(#h)"></path><path fill="url(#i)" d="M12.201 42a.999.999 0 0 1-.707-1.707l2.828-2.829a.999.999 0 1 1 1.414 1.414l-2.828 2.829a.997.997 0 0 1-.707.293z" data-original="url(#i)"></path><path fill="url(#j)" d="M48.971 5.231a.999.999 0 0 1-.707-1.707L51.092.695a.999.999 0 1 1 1.414 1.414l-2.828 2.829a.997.997 0 0 1-.707.293z" data-original="url(#j)"></path><path fill="url(#k)" d="M53.978 12.559a1 1 0 0 1-.402-1.916l3.663-1.607a.999.999 0 1 1 .803 1.831l-3.663 1.607a.987.987 0 0 1-.401.085z" data-original="url(#k)"></path><path fill="url(#l)" d="M6.36 33.451a1 1 0 0 1-.402-1.916l3.663-1.607a.999.999 0 1 1 .803 1.831l-3.663 1.607a.987.987 0 0 1-.401.085z" data-original="url(#l)"></path><path fill="url(#m)" d="M10.022 12.559a.983.983 0 0 1-.401-.085l-3.663-1.607a1 1 0 1 1 .803-1.831l3.663 1.607a1 1 0 0 1-.402 1.916z" data-original="url(#m)"></path><path fill="url(#n)" d="M57.64 33.451a.987.987 0 0 1-.401-.085l-3.663-1.607a1 1 0 1 1 .803-1.831l3.663 1.607a1 1 0 0 1-.402 1.916z" data-original="url(#n)"></path><path fill="url(#o)" d="M42 48H22a1 1 0 0 1 0-2h20a1 1 0 0 1 0 2z" data-original="url(#o)"></path><path fill="url(#p)" d="M42 54H22a1 1 0 0 1 0-2h20a1 1 0 0 1 0 2z" data-original="url(#p)"></path></g></svg>