<svg xmlns="http://www.w3.org/2000/svg" version="1.1" xmlns:xlink="http://www.w3.org/1999/xlink" xmlns:svgjs="http://svgjs.com/svgjs" width="512" height="512" x="0" y="0" viewBox="0 0 512.002 512.002" style="enable-background:new 0 0 512 512" xml:space="preserve" class=""><g><path d="M418.258 249.103 405.252 143.45l-24.372 3 .01-.017-47.25-26.591a28.474 28.474 0 0 0-16.583-3.538l-74.606 6.9a28.467 28.467 0 0 0-21.993 14.045l-52.584 90.508c-3.883 6.683-.835 15.254 6.396 17.985l2.151.812c4.138 1.563 8.391 2.468 12.642 2.822l-6.663 5.803-13.33 11.614-37.913 32.34c-6.749 5.879-7.45 16.109-1.571 22.858l3.846 4.405c7.55 8.658 20.691 9.557 29.365 2.005l14.49 16.62c4.711 5.41 11.613 7.803 18.244 6.987a20.683 20.683 0 0 0 11.12-4.982l14.474 16.621c4.728 5.424 11.629 7.801 18.26 6.985a20.683 20.683 0 0 0 11.122-4.966l7.866 6.798c7.552 8.673 20.708 9.57 29.382 2.018l10.693-9.329 89.896-70.012.097-.089 35.468-.035-5.651-45.914z" style="" fill="#f29f5c" data-original="#f29f5c"></path><path d="m379.731 267.833-.097.089-89.896 70.012-10.693 9.329c-8.673 7.552-21.83 6.655-29.382-2.018l-7.866-6.798a20.679 20.679 0 0 1-11.122 4.966c-6.631.816-13.531-1.561-18.26-6.985l-14.474-16.621a20.705 20.705 0 0 1-11.12 4.982c-6.631.816-13.533-1.576-18.244-6.987l-14.49-16.62c-7.426 6.466-18.118 6.718-25.781 1.227-3.93 5.926-3.616 13.958 1.283 19.582l3.846 4.405c7.55 8.658 20.691 9.557 29.365 2.005l14.49 16.62c4.711 5.41 11.613 7.803 18.244 6.987a20.687 20.687 0 0 0 11.12-4.982l14.474 16.622c4.728 5.424 11.629 7.801 18.26 6.985a20.683 20.683 0 0 0 11.122-4.966l7.866 6.798c7.552 8.673 20.708 9.57 29.382 2.018l10.693-9.329 89.896-70.012.097-.089 35.468-.035-3.924-31.876-40.257 4.691z" style="" fill="#d37d42" data-original="#d37d42"></path><path d="m396.101 313.533-48.165-41.53-13.394-11.54-9.584-8.254-41.207-35.52 4.759-40.51c1.61-13.701-7.015-26.528-20.311-30.207l-89.825-24.855a20.788 20.788 0 0 0-24.045 10.557l-11.296 22.05-48.488-3.291-12.42 105.724-5.398 45.945 47.198 3.139.098.089 98.602 84.993 10.745 9.27c8.715 7.504 21.866 6.534 29.37-2.181l14.38-16.686a20.683 20.683 0 0 0 11.15 4.905c6.635.78 13.523-1.636 18.221-7.086l14.382-16.701a20.692 20.692 0 0 0 11.148 4.92c6.635.78 13.524-1.651 18.205-7.088l14.397-16.7c8.715 7.504 21.851 6.532 29.353-2.168l3.822-4.427c5.842-6.78 5.084-17.006-1.697-22.848z" style="" fill="#f9c295" data-original="#f9c295"></path><path d="m396.101 313.533-14.671-12.65c4.768 6.323 4.67 15.318-.711 21.564l-4.057 4.699c-7.964 9.235-21.908 10.267-31.16 2.301l-15.284 17.728c-4.969 5.771-12.282 8.351-19.326 7.524a21.967 21.967 0 0 1-11.834-5.223l-15.268 17.73c-4.987 5.785-12.298 8.349-19.342 7.522a21.948 21.948 0 0 1-11.836-5.207l-15.266 17.714a21.952 21.952 0 0 1-10.474 6.752l6.499 5.607c8.715 7.504 21.866 6.534 29.37-2.181l14.38-16.686a20.683 20.683 0 0 0 11.15 4.905c6.635.779 13.523-1.636 18.221-7.086l14.382-16.701a20.692 20.692 0 0 0 11.148 4.92c6.635.78 13.524-1.651 18.205-7.088l14.397-16.7c8.715 7.504 21.851 6.532 29.353-2.168l3.822-4.427c5.841-6.781 5.083-17.007-1.698-22.849z" style="" fill="#e59f6a" data-original="#e59f6a"></path><path d="m369.5 337.416-26.392-22.756a7.501 7.501 0 0 0-9.795 11.361l26.345 22.716 4.966-5.76a20.76 20.76 0 0 0 6.52 3.791 7.505 7.505 0 0 0-1.644-9.352zM327.303 365.627c1.807-3.065 1.228-7.074-1.562-9.48l-23.708-20.441a7.501 7.501 0 0 0-9.795 11.361l23.708 20.441.03.023 4.898-5.688a20.733 20.733 0 0 0 6.429 3.784z" style="" fill="#e59f6a" data-original="#e59f6a"></path><path d="m126.385 305.135-5.713 7.544c-6.221 8.215-4.605 19.918 3.61 26.14 8.215 6.221 19.918 4.605 26.14-3.61l5.713-7.544c6.221-8.215 4.605-19.918-3.61-26.14-8.215-6.221-19.919-4.605-26.14 3.61zM161.181 321.002l-10.759 14.207c-6.221 8.215-4.605 19.918 3.61 26.14 8.215 6.221 19.918 4.605 26.14-3.61l10.759-14.207c6.221-8.215 4.605-19.918-3.61-26.14-8.216-6.221-19.919-4.605-26.14 3.61z" style="" fill="#f29f5c" data-original="#f29f5c"></path><path d="m194.834 338.377-14.663 19.362c-6.221 8.215-4.605 19.918 3.61 26.14 8.215 6.221 19.918 4.605 26.14-3.61l14.663-19.362c6.221-8.215 4.605-19.918-3.61-26.14-8.215-6.222-19.918-4.605-26.14 3.61z" style="" fill="#f29f5c" data-original="#f29f5c"></path><path d="m225.435 359.783-15.514 20.485c-6.221 8.215-4.605 19.918 3.61 26.14 8.215 6.221 19.918 4.605 26.14-3.61l15.514-20.485c6.221-8.215 4.605-19.918-3.61-26.14-8.216-6.221-19.919-4.605-26.14 3.61zM380.89 146.433l-47.25-26.591a28.474 28.474 0 0 0-16.583-3.538l-74.606 6.9a28.467 28.467 0 0 0-21.993 14.045l-52.584 90.508c-3.883 6.684-.835 15.254 6.396 17.985l2.151.812c19.275 7.28 41.043 1.085 53.596-15.252l20.147-26.22s48.429 56.073 101.749-9.41" style="" fill="#f29f5c" data-original="#f29f5c"></path><path d="m511.945 309.145-24.713-200.751a7.499 7.499 0 0 0-8.36-6.527l-57.788 7.114c-15.009 1.848-25.716 15.562-23.868 30.57l19.844 161.2c1.708 13.877 13.559 24.076 27.2 24.076 1.112 0 2.239-.068 3.37-.207l57.788-7.114a7.502 7.502 0 0 0 6.527-8.361z" style="" fill="#5c9cee" data-original="#5c9cee"></path><path d="m511.945 309.145-2.713-22.036a7.835 7.835 0 0 1-5.532 3.383l-60.577 7.457a28.929 28.929 0 0 1-3.533.217c-10.2 0-19.441-5.442-24.553-13.84l2.022 16.424c1.708 13.877 13.559 24.076 27.2 24.076 1.112 0 2.239-.068 3.37-.207l57.788-7.114a7.5 7.5 0 0 0 6.528-8.36z" style="" fill="#3580d3" data-original="#3580d3"></path><path d="m90.918 108.98-57.788-7.114a7.497 7.497 0 0 0-8.36 6.527L.057 309.145a7.5 7.5 0 0 0 6.527 8.36l57.788 7.114c1.132.139 2.257.207 3.37.207 13.64 0 25.492-10.2 27.2-24.076l19.844-161.2c1.848-15.008-8.859-28.722-23.868-30.57z" style="" fill="#ed5575" data-original="#ed5575"></path><path d="m.057 309.145 2.713-22.036a7.835 7.835 0 0 0 5.532 3.383l60.577 7.457c1.186.146 2.367.217 3.533.217 10.2 0 19.441-5.442 24.553-13.84l-2.022 16.424c-1.708 13.877-13.559 24.076-27.2 24.076-1.112 0-2.239-.068-3.37-.207l-57.788-7.114a7.5 7.5 0 0 1-6.528-8.36z" style="" fill="#cc3a60" data-original="#cc3a60"></path><circle cx="464" cy="277.001" r="14.498" style="" fill="#ebeef2" data-original="#ebeef2"></circle><circle cx="47.19" cy="277.001" r="14.498" style="" fill="#ebeef2" data-original="#ebeef2"></circle></g></svg>